<mxfile host="Electron" agent="Mozilla/5.0 (Windows NT 10.0; Win64; x64) AppleWebKit/537.36 (KHTML, like Gecko) draw.io/24.7.17 Chrome/128.0.6613.36 Electron/32.0.1 Safari/537.36" version="24.7.17">
  <diagram name="第 1 页" id="siq27njGiBVelVBZ8C05">
    <mxGraphModel dx="1036" dy="614" grid="0" gridSize="10" guides="1" tooltips="1" connect="1" arrows="1" fold="1" page="1" pageScale="1" pageWidth="1169" pageHeight="827" math="0" shadow="0">
      <root>
        <mxCell id="0" />
        <mxCell id="1" parent="0" />
        <mxCell id="3-PzqMy6q-kstQNubKnr-1" value="&lt;b&gt;&lt;font style=&quot;font-size: 19px;&quot;&gt;有自己的房子&lt;/font&gt;&lt;/b&gt;" style="rounded=1;whiteSpace=wrap;html=1;fillColor=#d5e8d4;strokeColor=#82b366;" vertex="1" parent="1">
          <mxGeometry x="351" y="128" width="120" height="60" as="geometry" />
        </mxCell>
        <mxCell id="3-PzqMy6q-kstQNubKnr-4" value="" style="endArrow=classic;html=1;rounded=0;exitX=0.5;exitY=1;exitDx=0;exitDy=0;" edge="1" parent="1" source="3-PzqMy6q-kstQNubKnr-1">
          <mxGeometry width="50" height="50" relative="1" as="geometry">
            <mxPoint x="504" y="383" as="sourcePoint" />
            <mxPoint x="514" y="354" as="targetPoint" />
          </mxGeometry>
        </mxCell>
        <mxCell id="3-PzqMy6q-kstQNubKnr-5" value="&lt;b&gt;&lt;font style=&quot;font-size: 19px;&quot;&gt;yes&lt;/font&gt;&lt;/b&gt;" style="whiteSpace=wrap;html=1;aspect=fixed;fillColor=#fff2cc;strokeColor=#d6b656;" vertex="1" parent="1">
          <mxGeometry x="495" y="363" width="80" height="80" as="geometry" />
        </mxCell>
        <mxCell id="3-PzqMy6q-kstQNubKnr-6" value="&lt;b&gt;&lt;font style=&quot;font-size: 15px;&quot;&gt;1&lt;/font&gt;&lt;/b&gt;" style="text;html=1;align=center;verticalAlign=middle;resizable=0;points=[];autosize=1;strokeColor=none;fillColor=none;" vertex="1" parent="1">
          <mxGeometry x="482" y="275" width="26" height="30" as="geometry" />
        </mxCell>
        <mxCell id="3-PzqMy6q-kstQNubKnr-7" value="" style="endArrow=classic;html=1;rounded=0;" edge="1" parent="1">
          <mxGeometry width="50" height="50" relative="1" as="geometry">
            <mxPoint x="411" y="191" as="sourcePoint" />
            <mxPoint x="273" y="281" as="targetPoint" />
          </mxGeometry>
        </mxCell>
        <mxCell id="3-PzqMy6q-kstQNubKnr-8" value="&lt;b&gt;&lt;font style=&quot;font-size: 19px;&quot;&gt;有工作&lt;/font&gt;&lt;/b&gt;" style="rounded=1;whiteSpace=wrap;html=1;fillColor=#dae8fc;strokeColor=#6c8ebf;" vertex="1" parent="1">
          <mxGeometry x="214" y="288" width="120" height="60" as="geometry" />
        </mxCell>
        <mxCell id="3-PzqMy6q-kstQNubKnr-9" value="" style="endArrow=classic;html=1;rounded=0;exitX=0.5;exitY=1;exitDx=0;exitDy=0;" edge="1" parent="1" source="3-PzqMy6q-kstQNubKnr-8">
          <mxGeometry width="50" height="50" relative="1" as="geometry">
            <mxPoint x="504" y="383" as="sourcePoint" />
            <mxPoint x="192" y="459" as="targetPoint" />
          </mxGeometry>
        </mxCell>
        <mxCell id="3-PzqMy6q-kstQNubKnr-11" value="&lt;b&gt;&lt;font style=&quot;font-size: 19px;&quot;&gt;no&lt;/font&gt;&lt;/b&gt;" style="whiteSpace=wrap;html=1;aspect=fixed;fillColor=#fff2cc;strokeColor=#d6b656;" vertex="1" parent="1">
          <mxGeometry x="153" y="469" width="80" height="80" as="geometry" />
        </mxCell>
        <mxCell id="3-PzqMy6q-kstQNubKnr-12" value="" style="endArrow=classic;html=1;rounded=0;exitX=0.5;exitY=1;exitDx=0;exitDy=0;" edge="1" parent="1" source="3-PzqMy6q-kstQNubKnr-8">
          <mxGeometry width="50" height="50" relative="1" as="geometry">
            <mxPoint x="504" y="383" as="sourcePoint" />
            <mxPoint x="355" y="463" as="targetPoint" />
          </mxGeometry>
        </mxCell>
        <mxCell id="3-PzqMy6q-kstQNubKnr-14" value="&lt;b&gt;&lt;font style=&quot;font-size: 19px;&quot;&gt;yes&lt;/font&gt;&lt;/b&gt;" style="whiteSpace=wrap;html=1;aspect=fixed;fillColor=#f8cecc;strokeColor=#b85450;" vertex="1" parent="1">
          <mxGeometry x="319" y="472" width="80" height="80" as="geometry" />
        </mxCell>
        <mxCell id="3-PzqMy6q-kstQNubKnr-15" value="&lt;b&gt;&lt;font style=&quot;font-size: 15px;&quot;&gt;0&lt;/font&gt;&lt;/b&gt;" style="text;html=1;align=center;verticalAlign=middle;resizable=0;points=[];autosize=1;strokeColor=none;fillColor=none;" vertex="1" parent="1">
          <mxGeometry x="302" y="220" width="26" height="30" as="geometry" />
        </mxCell>
        <mxCell id="3-PzqMy6q-kstQNubKnr-16" value="&lt;b&gt;&lt;font style=&quot;font-size: 15px;&quot;&gt;0&lt;/font&gt;&lt;/b&gt;" style="text;html=1;align=center;verticalAlign=middle;resizable=0;points=[];autosize=1;strokeColor=none;fillColor=none;" vertex="1" parent="1">
          <mxGeometry x="177" y="399" width="26" height="30" as="geometry" />
        </mxCell>
        <mxCell id="3-PzqMy6q-kstQNubKnr-17" value="&lt;b&gt;&lt;font style=&quot;font-size: 15px;&quot;&gt;1&lt;/font&gt;&lt;/b&gt;" style="text;html=1;align=center;verticalAlign=middle;resizable=0;points=[];autosize=1;strokeColor=none;fillColor=none;" vertex="1" parent="1">
          <mxGeometry x="342" y="404" width="26" height="30" as="geometry" />
        </mxCell>
      </root>
    </mxGraphModel>
  </diagram>
</mxfile>
